<?xml version="1.0" encoding="utf-8"?>
<svg viewBox="202.896 157.292 40.019 42.446" xmlns="http://www.w3.org/2000/svg">
  <path d="M24.2175 4.10239C23.8932 3.60575 23.4194 3.59149 22.8795 3.57523C22.8183 3.57339 22.7563 3.57153 22.6936 3.56893C22.6458 3.56673 22.5931 3.56758 22.538 3.56846C22.319 3.57198 22.0629 3.57609 21.9339 3.39212C21.7843 3.17883 21.7985 2.76663 21.8102 2.42635C21.8139 2.31882 21.8173 2.21841 21.8153 2.1338C21.7943 1.34332 21.7504 0.503628 21.4453 0.22292C21.2152 0.0123098 20.5268 0.041487 19.892 0.0683954C19.6862 0.0771184 19.486 0.085603 19.3089 0.085603H5.79596C5.52389 0.085603 5.23869 0.0634489 4.95847 0.0416813C4.41245 -0.000733803 3.88533 -0.0416812 3.511 0.085603C2.96775 0.271231 2.93096 1.24667 2.89633 2.16519L2.89446 2.21461C2.86538 2.97288 2.67746 3.55799 2.05465 3.49906C1.33029 3.43161 0.609497 3.41035 0.281987 4.06594C-0.10481 4.84161 -0.0250374 5.65358 0.117847 7.10792C0.138258 7.31567 0.159956 7.53652 0.181766 7.77225H24.4264C24.4403 7.59995 24.455 7.42986 24.4696 7.26253C24.5831 5.95406 24.682 4.81402 24.2175 4.10239Z" fill="#8047F8" transform="matrix(1, 0, 0, 1, 211.518915, 159.52417)"/>
  <path fill-rule="evenodd" clip-rule="evenodd" d="M 213.331 169.02 C 213.71 174.145 214.084 179.276 214.459 184.406 L 214.459 184.409 C 214.662 187.195 214.866 189.981 215.07 192.766 L 215.843 192.766 C 215.896 193.202 215.956 193.74 216.02 194.308 C 216.149 195.459 216.292 196.732 216.412 197.514 L 216.497 197.514 C 217.285 197.225 222.732 194.897 222.735 185.627 C 222.734 185.601 222.735 185.574 222.737 185.548 L 221.392 185.548 C 221.327 185.548 221.263 185.526 221.212 185.486 C 221.161 185.447 221.124 185.392 221.107 185.329 C 220.976 185.005 220.87 184.672 220.791 184.332 C 219.999 184.779 219.37 185.462 218.994 186.283 C 218.637 185.442 218.591 184.504 218.862 183.632 C 219.134 182.761 219.707 182.011 220.481 181.515 C 220.491 178.81 221.504 176.202 223.327 174.186 L 223.356 174.161 C 223.409 174.115 223.477 174.089 223.547 174.089 C 223.588 174.089 223.628 174.098 223.665 174.114 C 223.703 174.131 223.736 174.155 223.764 174.186 C 225.609 176.205 226.616 178.838 226.585 181.559 C 227.374 182.041 227.958 182.79 228.23 183.666 C 228.503 184.543 228.444 185.487 228.065 186.324 C 227.691 185.501 227.062 184.818 226.269 184.373 C 226.22 184.702 226.131 185.024 226.003 185.332 C 225.959 185.464 225.87 185.548 225.782 185.548 L 224.347 185.548 C 224.349 185.564 224.35 185.58 224.351 185.596 L 224.352 185.599 L 224.352 185.607 C 224.352 185.62 224.352 185.634 224.352 185.648 C 224.372 195.184 230.163 197.348 230.651 197.514 L 230.818 197.514 C 230.861 196.763 231 195.726 231.135 194.716 C 231.228 194.02 231.32 193.336 231.377 192.766 L 232.16 192.766 C 232.41 189.258 232.668 185.76 232.925 182.262 L 232.926 182.26 L 232.926 182.259 C 233.255 177.784 233.585 173.31 233.899 168.814 L 213.381 168.814 C 213.322 168.826 213.326 168.922 213.331 169.02 Z M 223.547 174.089 L 223.546 174.089 L 223.549 174.089 L 223.547 174.089 Z" fill="#8047F8"/>
</svg>